<svg width="432" height="30" viewBox="0 0 432 30" fill="none" xmlns="http://www.w3.org/2000/svg">
<path d="M0.000355303 29.0918V0.000886917H9.8157C11.7096 0.000886917 13.2863 0.332326 14.5458 0.995204C15.8147 1.65808 16.7665 2.56244 17.4009 3.70827C18.0354 4.85411 18.3526 6.15619 18.3526 7.61452C18.3526 8.82665 18.149 9.86358 17.7418 10.7253C17.3346 11.5871 16.7807 12.2831 16.0799 12.8134C15.3791 13.3437 14.5979 13.7272 13.7362 13.964V14.1912C14.6737 14.2575 15.5827 14.589 16.4634 15.1855C17.3441 15.7727 18.0685 16.5965 18.6367 17.6571C19.2049 18.7177 19.489 19.9867 19.489 21.464C19.489 22.9318 19.1623 24.2433 18.5089 25.3986C17.8555 26.5444 16.8517 27.4488 15.4975 28.1117C14.1528 28.7651 12.4388 29.0918 10.3555 29.0918H0.000355303ZM2.65661 26.7054H10.3555C12.5998 26.7054 14.257 26.2083 15.3271 25.214C16.4066 24.2196 16.9464 22.9696 16.9464 21.464C16.9464 20.356 16.6765 19.3522 16.1367 18.4526C15.6064 17.5435 14.8536 16.8238 13.8782 16.2935C12.9123 15.7632 11.7759 15.498 10.4691 15.498H2.65661V26.7054ZM2.65661 13.1401H10.0572C11.203 13.1401 12.2068 12.9033 13.0685 12.4299C13.9303 11.9564 14.6026 11.303 15.0856 10.4696C15.5685 9.6363 15.81 8.6846 15.81 7.61452C15.81 6.07096 15.3081 4.81623 14.3043 3.85032C13.3005 2.87494 11.8043 2.38725 9.8157 2.38725H2.65661V13.1401ZM81.8988 29.0918V0.000886917H98.7738V2.38725H84.555V13.339H97.8789V15.7253H84.555V26.7054H99.0579V29.0918H81.8988ZM161.691 29.0918H158.907L169.49 0.000886917H172.331L182.913 29.0918H180.129L171.01 3.45259H170.811L161.691 29.0918ZM163.694 17.9412H178.126V20.3276H163.694V17.9412ZM263.288 0.000886917H265.944V19.2623C265.944 21.2414 265.48 23.0123 264.552 24.5748C263.624 26.1278 262.332 27.3541 260.674 28.2537C259.027 29.1439 257.109 29.589 254.922 29.589C252.743 29.589 250.826 29.1391 249.169 28.2395C247.511 27.3399 246.219 26.1136 245.291 24.5605C244.363 23.0075 243.899 21.2414 243.899 19.2623V0.000886917H246.555V19.0776C246.555 20.6212 246.901 21.999 247.592 23.2111C248.283 24.4138 249.254 25.3607 250.504 26.052C251.763 26.7433 253.236 27.089 254.922 27.089C256.607 27.089 258.08 26.7433 259.339 26.052C260.599 25.3607 261.569 24.4138 262.251 23.2111C262.942 21.999 263.288 20.6212 263.288 19.0776V0.000886917ZM327.903 2.38725V0.000886917H348.997V2.38725H339.778V29.0918H337.122V2.38725H327.903ZM408.25 0.000886917H411.318L419.94 13.8077H420.196L428.818 0.000886917H431.886L421.389 16.4924V29.0918H418.747V16.4924L408.25 0.000886917Z" fill="black"/>
</svg>
