<svg width="205" height="304" viewBox="0 0 205 304" fill="none" xmlns="http://www.w3.org/2000/svg">
<path d="M0.214883 0L204.546 0.0458876L204.356 17.1761L16.7527 17.2348C16.193 49.3098 16.6803 82.8626 16.6789 115.041C16.7101 177.308 15.9365 240.877 16.6978 303.001L0.0970882 303.118L0.0658417 99.0297L0.124523 40.9582C0.102758 27.5756 -0.194387 13.3173 0.214883 0Z" fill="#1D1D1D"/>
<path d="M48.6532 50.4004L199.075 50.4723C197.107 56.5962 192.617 65.7661 185.278 67.1172C180.94 67.9162 174.477 67.5307 169.944 67.5122L147.668 67.4876L64.8726 67.5666L64.8863 93.5782C64.963 101.294 64.9923 109.011 64.9748 116.728C84.7404 117.326 104.798 116.6 124.593 116.868C135.617 117.017 146.883 117.011 157.888 116.782C157.959 122.469 157.883 128.31 157.879 134.011L48.6376 134.08C47.9681 107.766 48.374 76.9778 48.6532 50.4004Z" fill="#1D1D1D"/>
<path d="M48.5977 167.049L157.906 167.076L157.859 184.348C127.441 183.799 95.5222 184.273 64.976 184.258C64.748 192.686 64.9164 201.99 64.9051 210.481L64.9524 303.02L48.6189 303.033L48.5977 167.049Z" fill="#1D1D1D"/>
</svg>
