<svg width="739" height="79" viewBox="0 0 739 79" fill="none" xmlns="http://www.w3.org/2000/svg">
<path d="M435.582 0.11515C446.824 0.0914972 458.198 0.186502 470.013 0.158119C490.467 0.106082 502.977 18.6356 490.789 36.2431C486.734 42.1044 479.078 44.4039 472.005 45.1845C480.663 56.1596 489.208 67.2249 497.64 78.3798C495.146 78.4508 489.232 79.0604 487.505 77.6318L462.788 45.411L442.893 45.6571L442.831 78.4267L434.915 78.4452C434.972 71.2285 434.3 2.04763 435.582 0.11515ZM475.961 7.85929C466.612 6.06171 452.763 7.0596 442.964 7.15421C442.827 17.7225 442.804 28.2908 442.894 38.8544C454.859 38.968 473.658 41.2152 482.548 34.247C490.497 25.2161 488.58 10.2861 475.961 7.85929Z" fill="#1D1D1D"/>
<path d="M284.004 0C295.69 0.307492 307.418 -0.0852209 319.104 0.179688C325.433 0.321607 331.685 2.119 336.653 6.12109C345.677 13.3921 346.572 28.2094 339.081 36.876C334.061 42.6805 328.436 44.4871 321.042 45.1494C329.129 54.379 339.458 68.3255 346.681 78.3877C344.318 78.4255 338.781 78.789 336.997 78.0322C329.434 67.7903 320.153 55.0366 311.939 45.457C305.247 45.4428 298.555 45.4662 291.863 45.5371L291.882 78.416L283.945 78.4492L284.004 0ZM324.549 7.96191C315.418 5.96091 301.689 7.13904 291.973 7.12012C291.804 17.2437 291.641 28.763 291.904 38.8535C303.711 38.9766 322.169 41.1243 331.026 34.5303C339.485 25.7785 336.972 10.6821 324.549 7.96191Z" fill="#1D1D1D"/>
<path d="M140.682 0.104584C157.896 0.416809 176.183 0.128209 193.433 0.0761719L193.322 7.03498L148.63 7.06339L148.55 35.8543L187.738 35.8448L187.838 42.7658C176.388 42.9929 164.062 42.7374 152.542 42.7091C150.826 42.7043 149.981 42.5056 148.824 43.3761C148.171 47.9223 148.584 65.8752 148.597 71.4385L193.689 71.4337L193.813 78.4209L140.591 78.4162C140.634 52.5583 140.228 25.8868 140.682 0.104584Z" fill="#1D1D1D"/>
<path d="M8.26678 0.137931C22.771 -0.0796806 38.0247 0.128462 52.5678 0.189961L52.5522 7.03524C37.6386 7.22447 22.7114 6.94064 7.76903 7.17245C7.60485 16.9744 7.70894 27.065 7.70279 36.8859L33.2725 36.848C36.3361 36.8433 43.4877 36.6162 46.2111 37.1366C47.0916 38.3713 46.8612 40.0601 46.8664 41.6496C46.8077 42.6857 46.8006 42.5201 46.5182 43.5324C44.2031 44.3508 12.7276 43.8258 7.68481 43.8589L7.70421 78.4449H0L0.0586666 0.175755L8.26678 0.137931Z" fill="#1D1D1D"/>
<path d="M587.707 0.0613759L595.329 0.0566406L595.334 71.4L640.685 71.4521V78.4346L587.56 78.4014C587.513 53.4707 586.846 24.6373 587.707 0.0613759Z" fill="#1D1D1D"/>
<path d="M730.357 0.0761719L738.169 0.128202L738.15 78.4257L730.196 78.4304C730.329 52.6671 729.742 25.6928 730.357 0.0761719Z" fill="#1D1D1D"/>
</svg>
