<svg width="739" height="582" viewBox="0 0 739 582" fill="none" xmlns="http://www.w3.org/2000/svg">
<path d="M174.047 572.9V543.809H183.863C185.757 543.809 187.333 544.141 188.593 544.804C189.862 545.467 190.813 546.371 191.448 547.517C192.082 548.663 192.4 549.965 192.4 551.423C192.4 552.635 192.196 553.672 191.789 554.534C191.382 555.396 190.828 556.092 190.127 556.622C189.426 557.152 188.645 557.536 187.783 557.773V558C188.721 558.066 189.63 558.398 190.51 558.994C191.391 559.581 192.115 560.405 192.684 561.466C193.252 562.526 193.536 563.795 193.536 565.273C193.536 566.74 193.209 568.052 192.556 569.207C191.902 570.353 190.899 571.257 189.544 571.92C188.2 572.574 186.486 572.9 184.402 572.9H174.047ZM176.703 570.514H184.402C186.647 570.514 188.304 570.017 189.374 569.023C190.453 568.028 190.993 566.778 190.993 565.273C190.993 564.165 190.723 563.161 190.184 562.261C189.653 561.352 188.9 560.632 187.925 560.102C186.959 559.572 185.823 559.307 184.516 559.307H176.703V570.514ZM176.703 556.949H184.104C185.25 556.949 186.254 556.712 187.115 556.238C187.977 555.765 188.65 555.112 189.132 554.278C189.615 553.445 189.857 552.493 189.857 551.423C189.857 549.88 189.355 548.625 188.351 547.659C187.347 546.684 185.851 546.196 183.863 546.196H176.703V556.949ZM255.946 572.9V543.809H272.821V546.196H258.602V557.148H271.926V559.534H258.602V570.514H273.105V572.9H255.946ZM335.738 572.9H332.954L343.537 543.809H346.377L356.96 572.9H354.176L345.056 547.261H344.858L335.738 572.9ZM337.741 561.75H352.173V564.136H337.741V561.75ZM437.335 543.809H439.991V563.071C439.991 565.05 439.527 566.821 438.599 568.383C437.671 569.936 436.378 571.163 434.721 572.062C433.074 572.952 431.156 573.398 428.968 573.398C426.79 573.398 424.873 572.948 423.216 572.048C421.558 571.148 420.266 569.922 419.338 568.369C418.41 566.816 417.946 565.05 417.946 563.071V543.809H420.602V562.886C420.602 564.43 420.948 565.808 421.639 567.02C422.33 568.222 423.301 569.169 424.551 569.861C425.81 570.552 427.283 570.898 428.968 570.898C430.654 570.898 432.127 570.552 433.386 569.861C434.645 569.169 435.616 568.222 436.298 567.02C436.989 565.808 437.335 564.43 437.335 562.886V543.809ZM501.95 546.196V543.809H523.044V546.196H513.825V572.9H511.169V546.196H501.95ZM582.297 543.809H585.365L593.987 557.616H594.243L602.865 543.809H605.933L595.436 560.301V572.9H592.794V560.301L582.297 543.809Z" fill="black"/>
<path d="M256.398 0L460.729 0.0458876L460.54 17.1761L272.936 17.2348C272.377 49.3098 272.864 82.8626 272.862 115.041C272.894 177.308 272.12 240.877 272.881 303.001L256.281 303.118L256.249 99.0297L256.308 40.9582C256.286 27.5756 255.989 13.3173 256.398 0Z" fill="#1D1D1D"/>
<path d="M304.837 50.4004L455.259 50.4723C453.291 56.5962 448.8 65.7661 441.462 67.1172C437.123 67.9162 430.66 67.5307 426.127 67.5122L403.852 67.4876L321.056 67.5666L321.07 93.5782C321.147 101.294 321.176 109.011 321.158 116.728C340.924 117.326 360.982 116.6 380.776 116.868C391.801 117.017 403.066 117.011 414.072 116.782C414.143 122.469 414.067 128.31 414.062 134.011L304.821 134.08C304.152 107.766 304.558 76.9778 304.837 50.4004Z" fill="#1D1D1D"/>
<path d="M304.781 167.049L414.09 167.076L414.043 184.348C383.624 183.799 351.706 184.273 321.16 184.258C320.932 192.686 321.1 201.99 321.089 210.481L321.136 303.02L304.803 303.033L304.781 167.049Z" fill="#1D1D1D"/>
<path d="M435.582 406.309C446.824 406.285 458.198 406.38 470.013 406.351C490.467 406.299 502.977 424.829 490.789 442.436C486.734 448.298 479.078 450.597 472.005 451.378C480.663 462.353 489.208 473.418 497.64 484.573C495.146 484.644 489.232 485.254 487.505 483.825L462.788 451.604L442.893 451.851L442.831 484.62L434.915 484.639C434.972 477.422 434.3 408.241 435.582 406.309ZM475.961 414.053C466.612 412.255 452.763 413.253 442.964 413.348C442.827 423.916 442.804 434.484 442.894 445.048C454.859 445.161 473.658 447.409 482.548 440.44C490.497 431.409 488.58 416.479 475.961 414.053Z" fill="#1D1D1D"/>
<path d="M284.004 406.193C295.69 406.501 307.418 406.108 319.104 406.373C325.433 406.515 331.685 408.312 336.653 412.314C345.677 419.586 346.572 434.403 339.081 443.069C334.061 448.874 328.436 450.68 321.042 451.343C329.129 460.572 339.458 474.519 346.681 484.581C344.318 484.619 338.781 484.982 336.997 484.226C329.434 473.984 320.153 461.23 311.939 451.65C305.247 451.636 298.555 451.66 291.863 451.73L291.882 484.609L283.945 484.643L284.004 406.193ZM324.549 414.155C315.418 412.154 301.689 413.332 291.973 413.313C291.804 423.437 291.641 434.956 291.904 445.047C303.711 445.17 322.169 447.318 331.026 440.724C339.485 431.972 336.972 416.875 324.549 414.155Z" fill="#1D1D1D"/>
<path d="M140.682 406.298C157.896 406.61 176.183 406.322 193.433 406.27L193.322 413.228L148.63 413.257L148.55 442.048L187.738 442.038L187.838 448.959C176.388 449.186 164.062 448.931 152.542 448.902C150.826 448.898 149.981 448.699 148.824 449.569C148.171 454.116 148.584 472.069 148.597 477.632L193.689 477.627L193.813 484.614L140.591 484.61C140.634 458.752 140.228 432.08 140.682 406.298Z" fill="#1D1D1D"/>
<path d="M8.26678 406.331C22.771 406.114 38.0247 406.322 52.5678 406.383L52.5522 413.229C37.6386 413.418 22.7114 413.134 7.76903 413.366C7.60485 423.168 7.70894 433.258 7.70279 443.079L33.2725 443.041C36.3361 443.037 43.4877 442.81 46.2111 443.33C47.0916 444.565 46.8612 446.253 46.8664 447.843C46.8077 448.879 46.8006 448.713 46.5182 449.726C44.2031 450.544 12.7276 450.019 7.68481 450.052L7.70421 484.638H0L0.0586666 406.369L8.26678 406.331Z" fill="#1D1D1D"/>
<path d="M587.707 406.255L595.329 406.25L595.334 477.593L640.685 477.645V484.628L587.56 484.595C587.513 459.664 586.846 430.831 587.707 406.255Z" fill="#1D1D1D"/>
<path d="M730.357 406.27L738.169 406.322L738.15 484.619L730.196 484.624C730.329 458.86 729.742 431.886 730.357 406.27Z" fill="#1D1D1D"/>
</svg>
