<svg width="283" height="92" viewBox="0 0 283 92" fill="none" xmlns="http://www.w3.org/2000/svg">
<path d="M52.1309 0.00375227C60.1863 -0.0344217 60.9697 0.0540868 60.6065 8.67563C60.5149 10.8502 61.1819 13.6528 59.4717 15.4227C58.9533 15.9603 58.2952 16.3427 57.5713 16.5272C55.6052 17.013 46.8206 16.574 44.0977 16.7196C40.1092 16.933 36.8778 17.5707 33.9053 20.6493C29.4089 25.3064 30.0146 32.7775 30.1758 38.8163C35.828 38.7114 50.2307 38.5768 54.8135 40.6903C55.3366 39.6447 55.7425 38.4712 56.2852 37.4061C68.5941 13.2507 101.729 9.96907 116.668 33.411C118.272 35.928 119.514 38.1695 120.441 41.0243C117.13 48.8646 110.149 57.1777 102.302 60.6161C99.4686 61.8575 97.2927 62.8486 94.1641 63.5057C87.7054 64.862 76.3608 64.2677 70.1065 62.0584C73.9546 71.2745 82.0081 75.9852 91.9815 74.6913C109.308 72.4431 121.605 59.0247 127.787 43.4491C129.736 38.5386 131.724 33.5709 135.037 29.3827C144.953 17.1845 163.284 13.747 176.751 22.0457C178.954 23.4035 181.085 25.2485 183.114 26.8797C181.436 28.5466 180.08 30.5866 178.941 32.6473C177.537 35.4998 176.292 38.9143 175.882 42.0575C170.734 34.781 159.799 31.9358 152.153 36.9715C145.333 41.4639 144.935 47.4534 144.965 54.8612L144.975 62.701L144.958 81.9559C144.962 84.2845 145.473 88.4623 143.896 90.0096C142.816 91.0663 141.425 91.6693 139.877 91.6004C137.206 91.445 134.139 91.8472 131.539 91.4217C127.211 90.7131 128.071 84.2014 128.083 81.0038L128.085 69.9959C126.881 71.9913 125.238 73.866 123.666 75.5907C108.574 92.144 82.1927 98.5294 64.3575 82.3407C57.037 75.7436 52.6488 66.501 52.1651 56.66C48.0614 56.0071 44.2654 55.6207 40.1133 55.4666C37.0728 55.3539 33.165 55.5992 30.2383 55.328C29.8906 65.8973 30.4427 76.6792 30.043 87.2469C29.8434 92.5275 23.8708 91.4877 20.2715 91.5965C17.4288 91.6824 13.6237 91.5861 13.2354 87.7938C12.9041 84.1399 13.0501 80.3826 13.0518 76.7254L13.0372 55.4403C3.866 55.1932 0.311961 57.8432 0.0156858 47.6258C-0.309525 36.4067 4.43477 38.7158 13.0733 38.7879C12.8827 26.6272 12.9013 17.4861 22.0948 8.27328C28.2959 2.0594 35.2513 0.190932 43.6768 0.0359788L52.1309 0.00375227ZM101.402 40.4764C97.0494 35.9132 92.5284 33.9079 86.1221 34.5506C78.1134 35.611 74.5235 39.1239 70.5508 45.8172C75.2484 46.722 81.3095 47.7729 86.1221 47.7313C92.8328 47.4892 97.0257 45.4445 101.402 40.4764Z" fill="#202020"/>
<path d="M208.562 17.5544C213.71 17.1079 226.331 19.299 229.62 24.676C230.714 26.4647 227.551 32.7402 226.845 34.6583C226.132 36.5992 224.863 37.3606 222.915 38.0612C218.623 36.0874 215.756 34.4791 210.839 34.468C206.677 34.4586 202.766 35.7586 199.781 38.7453C197.681 40.8697 196.202 43.528 195.504 46.4322C194.685 49.9188 194.975 57.5417 194.982 61.4865L194.978 83.2564C194.994 84.393 195.015 85.5479 194.991 86.6694C194.885 91.9979 189.502 91.7568 185.616 91.644C182.549 91.555 180.685 91.9743 178.465 89.457C177.839 86.7733 178.073 82.6956 178.078 79.8422L178.096 66.6599L178.085 54.131C178.082 50.3151 177.898 45.7197 178.734 42.0614C179.856 37.1556 182.72 31.9899 186.059 28.2368C191.847 21.835 199.941 17.9925 208.562 17.5544Z" fill="#202020"/>
<path d="M239.613 3.67653C249.774 3.46709 250.47 3.72702 250.475 13.6864L250.477 22.2011L250.475 55.0952C250.489 57.9657 250.485 60.8363 250.466 63.7067C250.428 67.5989 249.503 73.8769 254.734 74.7646C258.27 75.3648 260.248 76.8106 260.46 80.6629C260.762 86.1134 261.111 91.2102 254.212 91.675C246.825 91.6532 240.611 88.5347 236.453 82.3714C234.245 79.1009 233.549 75.8528 233.408 71.9577C233.249 67.5618 233.314 63.1649 233.314 58.7677L233.316 35.6404L233.318 18.1147C233.316 14.933 233.25 11.7876 233.389 8.60711C233.566 4.52626 236.027 3.83755 239.613 3.67653Z" fill="#202020"/>
<path d="M269.021 31.432C271.885 31.3152 277.916 30.904 280.31 32.3932C283.129 34.1478 282.483 39.188 282.483 42.2932L282.478 54.9295L282.476 75.6694C282.476 79.432 282.514 83.1844 282.401 86.9456C282.318 89.7531 280.971 91.0997 278.224 91.5533C275.143 91.5966 269.197 92.1151 266.619 90.7858C264.092 89.4832 264.712 83.7596 264.712 81.1594V67.3883L264.715 46.9078C264.713 43.2496 264.635 39.5377 264.804 35.8859C264.908 33.6404 266.789 31.7369 269.021 31.432Z" fill="#202020"/>
<path d="M270.132 4.01688C272.178 3.81387 277.925 3.74429 279.65 4.73769C280.874 5.40401 282.396 7.46214 282.554 8.87338C283.181 14.5005 283.807 20.648 277.047 22.3568C274.063 22.4318 268.775 22.9421 266.55 21.0745C264.974 19.7524 263.984 17.7255 263.871 15.7068C263.696 12.5808 263.427 8.56538 265.635 6.05558C267.157 4.32454 268.098 4.19596 270.132 4.01688Z" fill="#202020"/>
</svg>
