<svg width="272" height="57" viewBox="0 0 272 57" fill="none" xmlns="http://www.w3.org/2000/svg">
<path d="M109.024 0.10117C114.324 0.0185511 119.771 0.0382165 125.089 0.0515369C130.104 0.196 134.788 -0.381854 139.753 0.733574C150.562 3.16186 155.37 15.3569 148.376 24.163C144.859 28.5915 139.585 29.8847 134.143 30.3673L145.885 43.9256C150.429 49.1373 152.665 52.2516 158.703 55.7719C156.67 56.378 154.974 56.5535 152.847 56.3665C149.953 56.1361 147.18 55.1092 144.835 53.3996C142.49 51.6803 138.868 47.0487 136.809 44.6073L126.667 32.6053C125.614 31.3925 124.582 30.1618 123.571 28.9139C130.133 28.9036 134.903 28.9713 140.078 24.0613C145.271 19.135 145.599 10.8657 140.471 5.82087C139.027 4.38433 137.229 3.35612 135.258 2.8409C132.595 2.14697 119.935 2.41512 116.348 2.42353L116.339 54.6777L108.936 54.6546C108.75 41.8872 108.929 28.7431 108.928 15.9365L108.903 5.63264C108.9 4.44585 108.83 1.09671 109.024 0.10117Z" fill="#0E0E0E"/>
<path d="M164.066 0.0899119L181.21 0.0535972C188.297 0.038691 195.152 -0.697424 201.157 3.84754C207.385 8.56234 208.172 17.9353 203.362 23.9135C199.692 28.475 194.738 29.7809 189.239 30.362C193.054 34.8421 196.893 39.3029 200.752 43.744C205.376 49.0869 207.563 52.1763 213.729 55.7843C211.658 56.3559 210.111 56.5684 207.94 56.3726C204.996 56.1136 202.176 55.0611 199.782 53.3271C197.477 51.6322 193.999 47.2195 191.976 44.8264L181.574 32.4854C180.793 31.4282 179.535 30.058 178.641 28.9079C185.18 28.9073 189.888 28.8722 195.012 23.9651C200.115 19.0782 200.519 10.8064 195.444 5.81025C193.92 4.33041 192.032 3.28269 189.969 2.77445C187.792 2.25337 184.108 2.40085 181.719 2.40259L171.436 2.41782C171.217 19.7089 171.464 37.3278 171.409 54.6614L164.047 54.6812L164.039 19.6652C164.036 13.2151 163.947 6.51782 164.066 0.0899119Z" fill="#0E0E0E"/>
<path d="M70.2469 0.11409C73.0071 -0.0636742 76.6465 0.03734 79.4814 0.0376571L95.8889 0.0436821L95.8802 2.5262L80.9718 2.54396C77.7136 2.5438 72.6063 2.31577 69.6104 3.0614C66.9178 3.72488 64.4553 5.10545 62.4844 7.05626C57.219 12.3169 57.9323 18.0734 57.9588 24.7981L87.3909 24.7964L87.4137 27.6642L57.9739 27.6753C57.9444 33.5668 57.2664 38.4123 59.7416 43.7858C60.5467 45.2149 61.4552 46.499 62.6149 47.6668C64.6656 49.7189 67.254 51.1502 70.0821 51.7961C72.8716 52.4472 78.1684 52.2511 81.3135 52.2492L95.8874 52.2443L95.8918 54.6963C90.6898 54.6132 85.3508 54.7055 80.1195 54.6813C71.476 54.6413 64.1242 55.5842 56.9735 49.6758C53.3388 46.6727 50.8653 42.1031 50.6338 37.4376C50.4978 34.6965 50.5084 30.7974 50.5625 28.0218C50.6372 24.1993 50.2097 17.933 51.0231 14.4664C51.6748 11.7638 52.9592 9.25477 54.7703 7.1457C58.8455 2.3708 64.2205 0.559374 70.2469 0.11409Z" fill="#0E0E0E"/>
<path d="M17.0238 0.114767C18.6152 -0.0877359 23.8769 0.0391264 25.8236 0.040395L43.9316 0.0400756L43.9078 2.54686L27.6006 2.53686C24.9472 2.53242 19.4329 2.34578 17.0194 2.90841C14.7992 3.41269 12.7696 4.54191 11.1705 6.16272C6.36203 11.0187 7.39301 18.2907 7.42044 24.796L35.4538 24.8018L35.4208 27.6608L27.9538 27.6687L7.41854 27.6638L7.4076 54.674L0.0410573 54.6796L0.0491456 27.5831C0.0435959 24.0426 -0.178552 16.0199 0.369602 13.0408C0.840376 10.4158 2.01422 7.96748 3.76619 5.95673C7.32879 1.85943 11.8439 0.507878 17.0238 0.114767Z" fill="#0E0E0E"/>
<path d="M220.544 0.105255C222.997 0.0646593 225.452 0.0695753 227.905 0.12032C228.011 3.4934 227.932 7.26118 227.932 10.6588L227.925 30.2069C227.924 33.3933 227.738 40.8471 228.282 43.6293C228.694 45.6451 229.673 47.5014 231.103 48.98C232.405 50.3028 234.038 51.2496 235.833 51.7204C238.557 52.4574 242.483 52.2545 245.388 52.248C248.94 52.225 252.493 52.2269 256.047 52.254C256.066 52.9749 256.14 53.8547 255.958 54.5311L255.612 54.6672C248.665 54.7551 241.625 54.6085 234.674 54.6845C230.634 54.6775 226.543 53.5962 223.665 50.6246C220.195 47.0411 220.503 42.2735 220.509 37.6803L220.517 29.036C220.516 19.4985 220.384 9.61082 220.544 0.105255Z" fill="#0E0E0E"/>
<path d="M264.149 0.104423C266.524 0.0349665 269.199 0.0850733 271.593 0.0820604L271.577 38.3824L271.607 48.803C271.614 50.214 271.687 53.4173 271.512 54.6919C269.047 54.6768 266.581 54.6775 264.115 54.694L264.12 19.3815C264.117 13.1692 263.966 6.27321 264.149 0.104423Z" fill="#0E0E0E"/>
</svg>
